<svg width="2069" height="401" viewBox="0 0 2069 401" fill="none" xmlns="http://www.w3.org/2000/svg">
<path d="M857.948 271.752C852.383 283.985 843.606 292.898 829.816 296.934V176.389C836.647 178.162 842.303 181.357 847.153 185.989C856.355 194.739 861.169 205.797 863.359 218.048C866.643 236.426 865.784 254.514 857.948 271.752ZM934.481 229.332C933.187 206.873 922.808 189.636 902.431 179.194C886.514 171.041 869.295 168.535 851.659 168.48C819.419 168.363 787.179 168.435 754.939 168.453C753.663 168.453 752.396 168.598 750.424 168.716C755.265 174.552 759.798 179.719 763.933 185.184C765.263 186.949 766.241 189.482 766.25 191.663C766.286 213.117 766.231 234.58 766.25 256.034C767.48 293.188 760.359 305.729 834.892 304.888C854.419 304.661 873.846 303.159 892.613 297.079C913.017 290.464 928.038 278.149 932.608 256.342C934.444 247.574 934.996 238.281 934.481 229.332Z" fill="#CFA550"/>
<path d="M1393.72 278.052L1393.62 278.042V242.988H1393.45V181.576C1399.48 183.141 1404.47 185.964 1408.76 190.054C1416.88 197.782 1421.13 207.545 1423.06 218.358C1425.97 234.591 1425.21 250.544 1418.29 265.773C1413.6 276.079 1406.21 283.589 1394.97 287.372C1393.95 284.729 1393.51 281.662 1393.72 278.052ZM1106.04 242.988H1105.67V283.96C1092.1 279.87 1083.42 271.057 1077.9 258.941C1070.06 241.694 1069.2 223.615 1072.5 205.238C1074.69 192.986 1079.5 181.929 1088.69 173.17C1093.55 168.546 1099.21 165.343 1106.04 163.569V242.988ZM1993.05 219.724C1979.88 215.87 1971.5 207.364 1966.19 195.682C1958.7 179.223 1957.88 161.958 1961.02 144.404C1963.11 132.704 1967.71 122.154 1976.48 113.784C1981.13 109.368 1986.52 106.319 1993.05 104.627V219.724ZM1972.19 97.0711C1955.35 97.1254 1938.91 99.5233 1923.7 107.305C1904.25 117.268 1894.34 133.727 1893.11 155.172C1892.61 163.723 1893.14 172.6 1894.89 180.96C1899.25 201.79 1913.6 213.553 1933.09 219.869C1951 225.678 1969.55 226.846 1988.2 227.316C1989.72 227.361 1991.24 227.461 1992.69 227.533C1993.53 227.615 1994.92 227.678 1996.14 227.787C1996.11 229.886 1996.13 231.279 1996.25 231.279C1996.67 235.279 1996.04 238.03 1994.35 239.496C1992.66 240.98 1989.24 241.93 1984.08 242.355C1978.9 242.771 1977.29 242.988 1963.79 242.988H1526.49C1526.49 242.988 1497.66 239.867 1497.66 298.375H1490.48C1465.95 298.375 1441.41 299.008 1416.92 298.166C1410.34 297.931 1405.33 296.836 1401.66 294.873C1417.64 294.366 1433.52 293.117 1448.89 288.132C1466.9 282.286 1480.17 271.419 1484.21 252.155C1485.83 244.427 1486.3 236.22 1485.85 228.312C1484.71 208.486 1475.56 193.266 1457.56 184.055C1443.51 176.861 1428.31 174.645 1412.74 174.59C1384.28 174.491 1355.82 174.563 1327.35 174.572C1326.23 174.572 1325.1 174.699 1323.36 174.807C1327.64 179.956 1331.64 184.516 1335.29 189.339C1336.46 190.896 1337.33 193.14 1337.33 195.067C1337.37 211.038 1337.33 227.009 1337.33 242.988H1169.6C1169.62 221.607 1169.56 200.225 1169.6 178.852C1169.6 176.662 1170.58 174.129 1171.91 172.364C1176.06 166.908 1180.59 161.741 1185.42 155.905C1183.46 155.778 1182.18 155.633 1180.92 155.633C1148.67 155.624 1116.43 155.552 1084.19 155.661C1066.56 155.724 1049.33 158.23 1033.41 166.383C1013.04 176.816 1002.67 194.063 1001.37 216.512C1000.86 225.47 1001.41 234.763 1003.25 243.522C1007.82 265.338 1022.84 277.653 1043.24 284.268C1062 290.349 1081.44 291.579 1100.96 292.068C1102.56 292.113 1104.15 292.222 1105.66 292.294L1105.67 292.321V299.94H1106.19C1105.87 310.925 1099.16 316.779 1083.01 317.331C1058.52 318.173 1033.98 317.548 1009.46 317.548H1002.27V400.126C1024.42 398.678 1065.18 392.606 1084.01 381.241C1103.01 369.786 1119.43 353.797 1128.52 332.397C1133.1 318.969 1132.87 309.133 1133.88 299.94H1391.13C1392.37 309.269 1394 314.282 1394.12 313.232C1403.2 334.623 1417.16 350.621 1436.14 362.067C1454.99 373.441 1475.51 379.504 1497.66 380.952V324.588C1498.29 316.236 1502.55 299.94 1526.49 299.94H1963.16C1995.22 299.94 2018.22 294.828 2032.14 284.594C2046.06 274.369 2053.78 258.389 2053.78 237.713C2053.78 234.555 2053.95 232.148 2053.75 230.456C2053.71 193.375 2053.68 156.294 2053.74 119.213C2053.75 117.123 2054.68 114.707 2055.96 113.015C2059.9 107.803 2064.23 102.871 2068.85 97.3064C2066.97 97.1797 2065.76 97.044 2064.54 97.044C2033.75 97.0349 2002.97 96.9625 1972.19 97.0711Z" fill="#CFA550"/>
<path d="M2021.88 0L1992.14 30.0593L2021.88 59.811L2051.94 30.0593L2021.88 0Z" fill="#CFA550"/>
<path d="M1983.28 30.0612L1953.22 0.00186395L1923.47 30.0612L1953.22 59.8129L1983.28 30.0612Z" fill="#CFA550"/>
<path d="M184.237 357.378L213.98 387.13L244.048 357.378L213.98 327.319L184.237 357.378Z" fill="#CFA550"/>
<path d="M252.908 357.378L282.651 387.13L312.71 357.378L282.651 327.319L252.908 357.378Z" fill="#CFA550"/>
<path d="M491.881 155.647V284.11C491.99 291.303 491.99 295.493 492.089 296.968C492.949 309.934 486.443 316.712 468.861 317.327C444.367 318.169 419.827 317.535 395.306 317.544H388.112V400.112C410.272 398.665 451.199 392.901 469.857 381.237C524.157 347.296 532.744 304.451 539.947 284.761C548.154 262.33 556.433 174.124 557.755 172.36C561.899 166.895 566.432 161.728 571.264 155.892C569.301 155.774 568.034 155.629 566.758 155.629C541.793 155.62 516.837 155.611 491.881 155.647Z" fill="#CFA550"/>
<path d="M104.849 284.12C91.0587 280.075 82.2725 271.171 76.7167 258.938C68.8716 241.691 68.021 223.612 71.3056 205.234C73.4954 192.983 78.3092 181.925 87.5026 173.166C92.3617 168.542 98.017 165.348 104.849 163.575V284.12ZM409.315 290.445V290.409H438.822L427.729 276.555C426.462 274.963 425.756 272.981 425.756 270.936L425.838 175.048C425.838 172.994 426.543 170.995 427.837 169.393L438.822 155.811H348.825L359.783 169.393C361.077 170.995 361.783 172.985 361.783 175.039V243.383H168.315L168.415 243.22C168.433 221.757 168.379 200.303 168.415 178.849C168.424 176.668 169.392 174.125 170.731 172.361C174.867 166.905 179.391 161.738 184.232 155.902C182.268 155.784 180.992 155.639 179.726 155.639C147.476 155.621 115.236 155.549 82.9964 155.657C65.3607 155.721 48.1413 158.227 32.2339 166.38C11.8475 176.813 1.47785 194.059 0.183904 216.509C-0.331865 225.467 0.220105 234.76 2.05696 243.519C6.62649 265.335 21.6471 277.65 42.0516 284.265C60.8093 290.345 80.2456 291.576 99.7724 292.064C101.365 292.11 102.958 292.218 104.469 292.291C107.256 308.316 101.419 316.658 81.8201 317.328C57.3347 318.17 32.7859 317.545 8.27332 317.545H1.07971V400.122C23.2306 398.675 63.9854 392.612 82.8335 381.238C101.817 369.783 123.624 353.794 132.709 332.403C138.754 314.704 136.473 303.248 139.695 291.277C139.695 291.277 174.179 291.06 217.241 290.445H409.315Z" fill="#CFA550"/>
</svg>
