<svg width="1024" height="700" viewBox="0 0 1024 700" fill="none" xmlns="http://www.w3.org/2000/svg">
<path d="M627.354 443.02H627.33C602.394 443.004 579.052 433.366 561.596 415.854C544.035 398.245 534.421 374.702 534.478 349.54C534.639 298.694 576.29 257.429 627.402 257.429H627.644C652.555 257.502 675.913 267.276 693.434 284.966C710.817 302.526 720.286 325.731 720.109 350.313C719.706 402.303 678.973 443.02 627.354 443.02ZM626.484 247.324H626.17C570.445 247.477 524.872 292.929 524.59 348.646C524.445 376.706 535.275 403.043 555.074 422.826C574.398 442.15 599.906 452.771 626.967 452.771L627.523 452.762C683.756 452.456 729.441 406.224 729.352 349.693C729.32 322.14 718.66 296.391 699.336 277.148C680.012 257.912 654.15 247.324 626.484 247.324Z" fill="#CFA550"/>
<path d="M747.29 297.969C731.976 308.677 731.976 308.677 735.97 326.48C751.598 396.07 697.813 461.739 625.517 461.329C577.038 461.047 534.082 429.066 520.137 382.873C505.837 335.481 523.945 284.152 564.429 257.332C605.782 229.94 660.034 232.009 697.153 263.701C705.728 271.028 711.187 271.261 719.842 265.021C732.322 256.027 743.071 256.768 751.026 265.343C760.374 275.416 758.708 289.981 747.29 297.969ZM627.055 160.72C571.611 160.833 521.868 184.714 487.197 222.484C487.165 293.975 487.093 423.615 486.964 477.537C521.473 515.372 571.063 539.124 626.773 539.188C731.718 539.293 816.317 455.057 816.494 350.272C816.655 245.979 731.243 160.511 627.055 160.72Z" fill="#CFA550"/>
<path d="M220.778 374.142V173.487C232.155 176.442 241.568 181.764 249.652 189.461C264.958 204.043 272.969 222.449 276.617 242.844C282.084 273.432 280.651 303.529 267.607 332.225C258.347 352.588 243.734 367.419 220.778 374.142ZM359.959 501.383C360.032 468.46 359.935 435.544 359.959 402.621C326.328 402.83 292.712 402.138 259.104 402.138C219.699 402.138 221.406 405.157 221.406 387.75C223.935 387.621 226.584 387.444 229.233 387.379C261.737 386.55 294.081 384.513 325.305 374.384C338.582 370.076 349.927 363.78 359.959 356.195C359.959 303.876 359.79 251.556 359.959 199.236C360.008 185.323 346.473 177.287 342.455 175.234C315.965 161.667 286.504 160.427 257.156 160.322C203.483 160.145 149.819 160.266 96.1548 160.282C94.0372 160.282 91.9196 160.532 88.6426 160.733C96.6942 170.443 104.239 179.043 111.123 188.133C113.345 191.064 114.972 195.291 114.98 198.922C115.181 308.739 115.181 391.26 114.963 501.077C114.955 504.901 113.136 509.33 110.785 512.43C103.957 521.464 96.4205 529.958 88.6426 539.306H247.011C239.394 530.168 232.655 521.737 225.489 513.67C222.01 509.732 220.352 505.763 220.424 500.384C220.69 477.84 220.513 455.287 220.529 432.734C220.537 431.398 220.827 430.053 221.157 427.219C236.278 462.831 259.499 489.45 291.094 508.517C306.714 517.937 323.035 525.167 340.032 530.353L341.28 528.863C346.658 522.502 351.859 516.359 356.731 509.926C358.615 507.381 359.959 503.895 359.959 501.383Z" fill="#CFA550"/>
<path d="M476.729 506.887L476.858 192.236C476.866 188.814 478.042 185.497 480.192 182.832L498.469 160.223H348.644L366.897 182.832C369.046 185.497 370.214 188.814 370.214 192.236V507.097C370.214 510.494 369.063 513.796 366.937 516.445L348.644 539.303H498.469L480.014 516.251C477.889 513.594 476.729 510.293 476.729 506.887Z" fill="#CFA550"/>
<path d="M40.376 552.47V147.06C40.376 112.744 68.1945 84.9258 102.511 84.9258H802.611C836.927 84.9258 864.746 112.744 864.746 147.052V552.47C864.746 586.786 836.927 614.604 802.611 614.604H102.511C68.1945 614.604 40.376 586.786 40.376 552.47ZM876.549 548.951V150.579C876.549 107.801 841.871 73.122 799.092 73.122H106.029C63.2508 73.122 28.5723 107.801 28.5723 150.579V548.951C28.5723 591.73 63.2508 626.408 106.029 626.408H799.092C841.871 626.408 876.549 591.73 876.549 548.951Z" fill="#CFA550"/>
<path d="M13.1516 544.123V155.397C13.1516 99.2369 58.6837 53.7048 114.844 53.7048H790.274C846.442 53.7048 891.975 99.2369 891.975 155.397V544.123C891.975 600.284 846.442 645.816 790.274 645.816H114.844C58.6837 645.816 13.1516 600.284 13.1516 544.123ZM903.126 540.798V158.731C903.126 94.567 851.112 42.5532 786.949 42.5532H118.177C54.0137 42.5532 2 94.567 2 158.731V540.79C2 604.954 54.0137 656.976 118.177 656.976H786.949C851.112 656.976 903.126 604.954 903.126 540.798Z" fill="#CFA550"/>
<path d="M981.428 608.28H984.714C987.532 608.28 989.649 608.722 991.01 609.592C992.226 610.373 992.813 611.726 992.813 613.739C992.813 615.695 992.21 617.064 990.978 617.925C989.625 618.859 987.524 619.334 984.714 619.334H981.428V608.28ZM981.428 624.439H984.045C985.156 624.439 986.034 624.673 986.678 625.132C987.379 625.639 988.176 626.613 989.029 628.014L995.116 638.288H1001.57L994.271 626.074C993.385 624.632 992.652 623.61 992.024 622.942C993.474 622.45 994.746 621.678 995.841 620.623C997.596 618.924 998.482 616.524 998.482 613.497C998.482 608.771 996.107 603.126 984.81 603.126H975.849V638.288H981.428V624.439Z" fill="#CFA550"/>
<path d="M986.694 594.503C1001.69 594.503 1013.88 606.709 1013.88 621.702C1013.88 636.694 1001.69 648.892 986.694 648.892C971.702 648.892 959.496 636.694 959.496 621.702C959.496 606.709 971.702 594.503 986.694 594.503ZM986.694 657C996.131 657 1005 653.328 1011.65 646.662C1018.33 640.003 1022 631.13 1022 621.702C1022 612.265 1018.33 603.4 1011.65 596.733C1005 590.058 996.123 586.387 986.694 586.387C977.258 586.387 968.385 590.058 961.726 596.733C955.059 603.392 951.388 612.257 951.388 621.702C951.388 631.138 955.059 640.003 961.726 646.662C968.385 653.328 977.258 657 986.694 657Z" fill="#CFA550"/>
</svg>
